<svg width="360" height="312" viewBox="0 0 360 312" fill="none" xmlns="http://www.w3.org/2000/svg">
<path d="M157.937 101.396C183.446 101.396 204.125 122.075 204.125 147.585V228.379C204.125 253.888 183.446 274.567 157.937 274.567H108.364L79.2762 310.473C77.2615 312.96 73.2399 311.535 73.2399 308.335V274.567H73.1153C47.6061 274.567 26.9268 253.888 26.9268 228.379V147.585C26.9268 122.075 47.6061 101.396 73.1153 101.396H157.937Z" fill="#3825C2"/>
<path d="M208.536 23.5942C183.027 23.5942 162.348 44.2735 162.348 69.7826V194.876C162.348 220.385 183.027 241.064 208.536 241.064H268.891L307.333 288.517C309.348 291.004 313.369 289.579 313.369 286.379V241.064H313.493C339.002 241.064 359.682 220.385 359.682 194.876V69.7826C359.682 44.2735 339.002 23.5942 313.493 23.5942H208.536Z" fill="#3825C2"/>
<path fill-rule="evenodd" clip-rule="evenodd" d="M136.752 88.1328C163.016 88.1328 184.308 109.424 184.308 135.688V213.748C184.308 240.013 163.016 261.304 136.752 261.304H88.5455L53.421 304.661V261.288C27.7315 260.629 7.10899 239.597 7.10899 213.748V135.689C7.10899 109.424 28.4004 88.1328 54.6647 88.1328H136.752Z" fill="#23FFCA"/>
<path fill-rule="evenodd" clip-rule="evenodd" d="M88.5458 261.304H136.752C163.016 261.304 184.308 240.013 184.308 213.749V135.689C184.308 109.424 163.016 88.133 136.752 88.133H54.665C28.4007 88.133 7.1093 109.424 7.1093 135.689V213.749C7.1093 239.597 27.7318 260.629 53.4213 261.288V304.661L88.5458 261.304ZM46.6276 267.508C20.4211 263.622 0.315628 241.034 0.315628 213.749V135.689C0.315628 105.672 24.6487 81.3394 54.665 81.3394H136.752C166.769 81.3394 191.102 105.672 191.102 135.689V213.749C191.102 243.765 166.769 268.098 136.752 268.098H91.7854L58.7001 308.938C56.8887 311.174 53.8652 312.026 51.1528 311.065C48.4404 310.104 46.6276 307.539 46.6276 304.661V267.508Z" fill="#3825C2"/>
<path fill-rule="evenodd" clip-rule="evenodd" d="M10.8164 136.945C10.8164 112.557 30.587 92.7864 54.9753 92.7864H136.441C160.829 92.7864 180.6 112.557 180.6 136.945V213.112C180.6 237.5 160.829 257.271 136.441 257.271H87.7704C85.8943 257.271 84.3735 255.75 84.3735 253.874C84.3735 251.998 85.8943 250.477 87.7704 250.477H136.441C157.077 250.477 173.806 233.748 173.806 213.112V136.945C173.806 116.309 157.077 99.58 136.441 99.58H54.9753C34.3391 99.58 17.6101 116.309 17.6101 136.945V213.112C17.6101 233.748 34.3391 250.477 54.9753 250.477H58.2997C60.1757 250.477 61.6965 251.998 61.6965 253.874C61.6965 255.75 60.1757 257.271 58.2997 257.271H54.9753C30.587 257.271 10.8164 237.5 10.8164 213.112V136.945Z" fill="#3825C2"/>
<path fill-rule="evenodd" clip-rule="evenodd" d="M34.5488 161.157C34.5488 158.343 36.8301 156.061 39.6441 156.061H81.5665C84.3806 156.061 86.6618 158.343 86.6618 161.157C86.6618 163.971 84.3806 166.252 81.5665 166.252H39.6441C36.8301 166.252 34.5488 163.971 34.5488 161.157Z" fill="#3825C2"/>
<path fill-rule="evenodd" clip-rule="evenodd" d="M34.5488 128.938C34.5488 126.124 36.8301 123.843 39.6441 123.843H138.429C141.243 123.843 143.524 126.124 143.524 128.938C143.524 131.752 141.243 134.033 138.429 134.033H39.6441C36.8301 134.033 34.5488 131.752 34.5488 128.938Z" fill="#3825C2"/>
<path fill-rule="evenodd" clip-rule="evenodd" d="M34.5488 191.361C34.5488 188.547 36.8301 186.266 39.6441 186.266H57.085C59.899 186.266 62.1802 188.547 62.1802 191.361C62.1802 194.175 59.899 196.456 57.085 196.456H39.6441C36.8301 196.456 34.5488 194.175 34.5488 191.361Z" fill="#3825C2"/>
<path fill-rule="evenodd" clip-rule="evenodd" d="M183.533 7.05444C157.269 7.05444 135.978 28.3458 135.978 54.61V176.969C135.978 203.233 157.269 224.525 183.533 224.525H242.522L287.001 279.428V224.509C312.69 223.849 333.312 202.817 333.312 176.969V54.61C333.312 28.3458 312.02 7.05444 285.756 7.05444H183.533Z" fill="#23FFCA"/>
<path fill-rule="evenodd" clip-rule="evenodd" d="M242.522 224.525H183.533C157.269 224.525 135.977 203.233 135.977 176.969V54.6099C135.977 28.3457 157.269 7.05439 183.533 7.05439H285.756C312.02 7.05439 333.311 28.3457 333.311 54.6099V176.969C333.311 202.817 312.689 223.849 287 224.509V279.428L242.522 224.525ZM293.794 230.728C320 226.842 340.105 204.254 340.105 176.969V54.6099C340.105 24.5937 315.772 0.260742 285.756 0.260742H183.533C153.517 0.260742 129.184 24.5937 129.184 54.6099V176.969C129.184 206.985 153.517 231.318 183.533 231.318H239.282L281.722 283.704C283.533 285.94 286.556 286.792 289.269 285.831C291.981 284.871 293.794 282.305 293.794 279.428V230.728Z" fill="#3825C2"/>
<path fill-rule="evenodd" clip-rule="evenodd" d="M140.266 56.83C140.266 32.4417 160.036 12.6711 184.424 12.6711H284.365C308.754 12.6711 328.524 32.4418 328.524 56.83V173.75C328.524 198.138 308.754 217.909 284.365 217.909H283.167C281.291 217.909 279.771 216.388 279.771 214.512C279.771 212.636 281.291 211.115 283.167 211.115H284.365C305.002 211.115 321.73 194.386 321.73 173.75V56.83C321.73 36.1938 305.002 19.4648 284.365 19.4648H184.424C163.788 19.4648 147.059 36.1938 147.059 56.83V173.75C147.059 194.386 163.788 211.115 184.425 211.115H245.267C247.143 211.115 248.664 212.636 248.664 214.512C248.664 216.388 247.143 217.909 245.267 217.909H184.425C160.036 217.909 140.266 198.138 140.266 173.75V56.83Z" fill="#3825C2"/>
<path fill-rule="evenodd" clip-rule="evenodd" d="M171.805 125.735C171.805 121.983 174.847 118.941 178.599 118.941H290.735C294.487 118.941 297.529 121.983 297.529 125.735C297.529 129.487 294.487 132.528 290.735 132.528H178.599C174.847 132.528 171.805 129.487 171.805 125.735Z" fill="#3825C2"/>
<path fill-rule="evenodd" clip-rule="evenodd" d="M171.805 90.4334C171.805 86.6814 174.847 83.6398 178.599 83.6398H290.735C294.487 83.6398 297.529 86.6814 297.529 90.4334C297.529 94.1855 294.487 97.2271 290.735 97.2271H178.599C174.847 97.2271 171.805 94.1855 171.805 90.4334Z" fill="#3825C2"/>
<path fill-rule="evenodd" clip-rule="evenodd" d="M171.805 56.469C171.805 52.7169 174.846 49.6753 178.598 49.6753H290.735C294.487 49.6753 297.528 52.7169 297.528 56.469C297.528 60.221 294.487 63.2626 290.735 63.2626H178.598C174.846 63.2626 171.805 60.221 171.805 56.469Z" fill="#3825C2"/>
<path fill-rule="evenodd" clip-rule="evenodd" d="M171.805 158.825C171.805 155.073 174.847 152.032 178.599 152.032H239.473C243.225 152.032 246.267 155.073 246.267 158.825C246.267 162.577 243.225 165.619 239.473 165.619H178.599C174.847 165.619 171.805 162.577 171.805 158.825Z" fill="#3825C2"/>
</svg>
