<svg width="399" height="289" viewBox="0 0 399 289" fill="none" xmlns="http://www.w3.org/2000/svg">
<path d="M26.126 34.124C26.126 30.0164 29.4559 26.6865 33.5635 26.6865H390.791C394.899 26.6865 398.229 30.0164 398.229 34.124V264.537C398.229 268.644 394.899 271.974 390.791 271.974H33.5635C29.4559 271.974 26.126 268.644 26.126 264.537V34.124Z" fill="#3825C2"/>
<path d="M7.77148 15.1289C7.77148 11.0213 11.1014 7.69141 15.209 7.69141H372.437C376.545 7.69141 379.874 11.0213 379.874 15.1289V245.542C379.874 249.649 376.545 252.979 372.437 252.979H15.209C11.1014 252.979 7.77148 249.649 7.77148 245.542V15.1289Z" fill="#23FFCA"/>
<path fill-rule="evenodd" clip-rule="evenodd" d="M15.209 0.254028H372.437C380.652 0.254028 387.312 6.91379 387.312 15.129V245.542C387.312 253.757 380.652 260.417 372.437 260.417H15.209C6.99376 260.417 0.333984 253.757 0.333984 245.542V15.129C0.333984 6.91382 6.99373 0.254028 15.209 0.254028ZM15.209 7.69153C11.1014 7.69153 7.77148 11.0214 7.77148 15.129V245.542C7.77148 249.649 11.1014 252.979 15.209 252.979H372.437C376.545 252.979 379.874 249.649 379.874 245.542V15.129C379.874 11.0214 376.545 7.69153 372.437 7.69153H15.209Z" fill="#3825C2"/>
<path fill-rule="evenodd" clip-rule="evenodd" d="M64.958 96.2712C64.958 94.2174 66.6229 92.5525 68.6768 92.5525H318.97C321.024 92.5525 322.689 94.2174 322.689 96.2712C322.689 98.3251 321.024 99.99 318.97 99.99H68.6768C66.6229 99.99 64.958 98.3251 64.958 96.2712Z" fill="#3825C2"/>
<path fill-rule="evenodd" clip-rule="evenodd" d="M141.714 54.4128C141.714 52.359 143.379 50.6941 145.433 50.6941H235.538C237.592 50.6941 239.257 52.359 239.257 54.4128C239.257 56.4667 237.592 58.1316 235.538 58.1316H145.433C143.379 58.1316 141.714 56.4667 141.714 54.4128Z" fill="#3825C2"/>
<path fill-rule="evenodd" clip-rule="evenodd" d="M64.958 115.461C64.958 113.407 66.6229 111.742 68.6768 111.742H318.97C321.024 111.742 322.689 113.407 322.689 115.461C322.689 117.514 321.024 119.179 318.97 119.179H68.6768C66.6229 119.179 64.958 117.514 64.958 115.461Z" fill="#3825C2"/>
<path fill-rule="evenodd" clip-rule="evenodd" d="M64.958 138.058C64.958 136.004 66.6229 134.339 68.6768 134.339H318.97C321.024 134.339 322.689 136.004 322.689 138.058C322.689 140.112 321.024 141.777 318.97 141.777H68.6768C66.6229 141.777 64.958 140.112 64.958 138.058Z" fill="#3825C2"/>
<path fill-rule="evenodd" clip-rule="evenodd" d="M64.958 160.585C64.958 158.531 66.6229 156.866 68.6768 156.866H318.97C321.024 156.866 322.689 158.531 322.689 160.585C322.689 162.639 321.024 164.304 318.97 164.304H68.6768C66.6229 164.304 64.958 162.639 64.958 160.585Z" fill="#3825C2"/>
<path fill-rule="evenodd" clip-rule="evenodd" d="M64.958 181.441C64.958 179.387 66.6229 177.722 68.6768 177.722H185.48C187.534 177.722 189.199 179.387 189.199 181.441C189.199 183.495 187.534 185.16 185.48 185.16H68.6768C66.6229 185.16 64.958 183.495 64.958 181.441Z" fill="#3825C2"/>
<path d="M297.656 210.234H337.703V281.151L317.68 261.127L297.656 281.151V210.234Z" fill="#23FFCA"/>
<path fill-rule="evenodd" clip-rule="evenodd" d="M290.219 210.234C290.219 206.127 293.549 202.797 297.656 202.797H337.703C341.811 202.797 345.141 206.127 345.141 210.234V281.151C345.141 284.159 343.329 286.871 340.549 288.022C337.77 289.173 334.571 288.537 332.444 286.41L317.68 271.646L302.915 286.41C300.788 288.537 297.589 289.173 294.81 288.022C292.031 286.871 290.219 284.159 290.219 281.151V210.234ZM317.68 261.127L337.703 281.151V210.234H297.656V281.151L317.68 261.127Z" fill="#3825C2"/>
<path d="M351.508 212.515C351.508 230.715 336.94 245.47 318.97 245.47C300.999 245.47 286.432 230.715 286.432 212.515C286.432 194.314 300.999 179.559 318.97 179.559C336.94 179.559 351.508 194.314 351.508 212.515Z" fill="#23FFCA"/>
<path fill-rule="evenodd" clip-rule="evenodd" d="M358.945 212.515C358.945 234.733 341.137 252.907 318.97 252.907C296.803 252.907 278.994 234.733 278.994 212.515C278.994 190.296 296.803 172.122 318.97 172.122C341.137 172.122 358.945 190.296 358.945 212.515ZM318.97 245.47C336.94 245.47 351.508 230.715 351.508 212.515C351.508 194.314 336.94 179.559 318.97 179.559C300.999 179.559 286.432 194.314 286.432 212.515C286.432 230.715 300.999 245.47 318.97 245.47Z" fill="#3825C2"/>
<path fill-rule="evenodd" clip-rule="evenodd" d="M343.785 212.514C343.785 226.251 332.765 237.55 318.972 237.55C305.179 237.55 294.159 226.251 294.159 212.514C294.159 198.777 305.179 187.478 318.972 187.478C332.765 187.478 343.785 198.777 343.785 212.514ZM318.972 230.112C328.568 230.112 336.348 222.233 336.348 212.514C336.348 202.795 328.568 194.916 318.972 194.916C309.376 194.916 301.597 202.795 301.597 212.514C301.597 222.233 309.376 230.112 318.972 230.112Z" fill="#3825C2"/>
</svg>
